<svg width="71" height="37" viewBox="0 0 71 37" fill="none" xmlns="http://www.w3.org/2000/svg">
<path d="M44.667 0.105263H37.0881L38.5 5H46.0789L44.667 0.105263Z" fill="#3EE15C"/>
<path d="M43.1295 21L39.0911 7.00001H46.67L50.7085 21H43.1295Z" fill="#3EE15C"/>
<path d="M33.0789 0L37.943 17H30.364L25.5 0H33.0789Z" fill="#38D254"/>
<path d="M33.0861 0L27.0284 21H19.4495L25.5072 0H33.0861Z" fill="#3EE15C"/>
<rect x="16" y="20.8421" width="15.1579" height="2.84211" rx="1.42105" fill="#3EE15C"/>
<rect x="39" y="20.8421" width="15.1579" height="2.84211" rx="1.42105" fill="#3EE15C"/>
<path d="M1.52961 27.426H2.88158L4.55921 32.4885L6.26151 27.426H7.59375L8.81743 34.6842H7.4852L6.70559 30.1003L5.16118 34.6842H3.94243L2.41776 30.1003L1.62336 34.6842H0.276316L1.52961 27.426ZM11.3181 27.1053C11.5549 27.1053 11.7572 27.1908 11.925 27.3618C12.0961 27.5329 12.1816 27.7401 12.1816 27.9835C12.1816 28.2237 12.0977 28.4293 11.9299 28.6003C11.7622 28.7681 11.5615 28.852 11.328 28.852C11.0878 28.852 10.8822 28.7664 10.7112 28.5954C10.5434 28.421 10.4595 28.2105 10.4595 27.9638C10.4595 27.727 10.5434 27.5247 10.7112 27.3569C10.8789 27.1891 11.0813 27.1053 11.3181 27.1053ZM10.6421 29.3158H11.9941V34.6842H10.6421V29.3158ZM18.1954 27.2434H19.5375V34.6842H18.1954V34.1168C17.9322 34.3668 17.6674 34.5477 17.401 34.6595C17.1378 34.7681 16.8516 34.8224 16.5424 34.8224C15.8484 34.8224 15.248 34.5543 14.7414 34.0181C14.2349 33.4786 13.9816 32.8092 13.9816 32.0099C13.9816 31.1809 14.2266 30.5016 14.7168 29.972C15.2069 29.4424 15.8023 29.1776 16.503 29.1776C16.8253 29.1776 17.128 29.2385 17.4109 29.3602C17.6937 29.4819 17.9553 29.6645 18.1954 29.9079V27.2434ZM16.7793 30.421C16.3615 30.421 16.0145 30.5691 15.7382 30.8651C15.4618 31.1579 15.3237 31.5345 15.3237 31.9951C15.3237 32.4589 15.4635 32.8405 15.7431 33.1398C16.026 33.4391 16.373 33.5888 16.7842 33.5888C17.2086 33.5888 17.5605 33.4424 17.8401 33.1497C18.1197 32.8536 18.2595 32.4671 18.2595 31.9901C18.2595 31.523 18.1197 31.1447 17.8401 30.8553C17.5605 30.5658 17.2069 30.421 16.7793 30.421ZM25.1961 30.0658L24.3622 30.8997C24.0234 30.5641 23.7158 30.3964 23.4395 30.3964C23.2882 30.3964 23.1697 30.4293 23.0842 30.4951C22.9987 30.5576 22.9559 30.6365 22.9559 30.7319C22.9559 30.8043 22.9822 30.8717 23.0349 30.9342C23.0908 30.9934 23.2257 31.0757 23.4395 31.1809L23.9329 31.4276C24.4526 31.6842 24.8095 31.9457 25.0036 32.2122C25.1977 32.4786 25.2947 32.7911 25.2947 33.1497C25.2947 33.6266 25.1187 34.0247 24.7668 34.3437C24.4181 34.6628 23.9493 34.8224 23.3605 34.8224C22.5776 34.8224 21.9526 34.5164 21.4855 33.9046L22.3145 33.0016C22.4724 33.1858 22.6566 33.3355 22.8671 33.4507C23.0809 33.5625 23.2701 33.6184 23.4345 33.6184C23.6122 33.6184 23.7553 33.5757 23.8638 33.4901C23.9724 33.4046 24.0266 33.3059 24.0266 33.1941C24.0266 32.9868 23.8309 32.7845 23.4395 32.5872L22.9855 32.3602C22.1171 31.9227 21.6829 31.375 21.6829 30.7171C21.6829 30.2928 21.8457 29.9309 22.1714 29.6316C22.5003 29.3289 22.9197 29.1776 23.4296 29.1776C23.7783 29.1776 24.1056 29.2549 24.4115 29.4095C24.7207 29.5608 24.9822 29.7796 25.1961 30.0658ZM27.5339 27.3372H28.876V29.3158H29.6753V30.4753H28.876V34.6842H27.5339V30.4753H26.8431V29.3158H27.5339V27.3372ZM31.0954 29.3158H32.25V29.9918C32.375 29.7253 32.5411 29.523 32.7484 29.3849C32.9556 29.2467 33.1826 29.1776 33.4293 29.1776C33.6036 29.1776 33.7862 29.2237 33.977 29.3158L33.5576 30.4753C33.3997 30.3964 33.2697 30.3569 33.1678 30.3569C32.9605 30.3569 32.7845 30.4852 32.6398 30.7418C32.4984 30.9983 32.4276 31.5016 32.4276 32.2516L32.4326 32.5132V34.6842H31.0954V29.3158ZM41.0368 32.3898H36.7095C36.772 32.7714 36.9382 33.0757 37.2079 33.3026C37.4809 33.5263 37.828 33.6382 38.249 33.6382C38.7523 33.6382 39.1849 33.4622 39.5467 33.1102L40.6816 33.6431C40.3987 34.0444 40.0599 34.3421 39.6651 34.5362C39.2704 34.727 38.8016 34.8224 38.2589 34.8224C37.4168 34.8224 36.7309 34.5576 36.2013 34.028C35.6717 33.4951 35.4069 32.8289 35.4069 32.0296C35.4069 31.2105 35.6701 30.5312 36.1964 29.9918C36.726 29.449 37.3888 29.1776 38.1849 29.1776C39.0303 29.1776 39.7178 29.449 40.2474 29.9918C40.777 30.5312 41.0418 31.2451 41.0418 32.1332L41.0368 32.3898ZM39.6849 31.3289C39.5961 31.0296 39.4201 30.7862 39.1569 30.5987C38.897 30.4112 38.5944 30.3174 38.249 30.3174C37.874 30.3174 37.5451 30.4227 37.2622 30.6332C37.0845 30.7648 36.9201 30.9967 36.7687 31.3289H39.6849ZM47.1099 29.3158H48.452V34.6842H47.1099V34.1168C46.8467 34.3668 46.5819 34.5477 46.3155 34.6595C46.0523 34.7681 45.7661 34.8224 45.4569 34.8224C44.7628 34.8224 44.1625 34.5543 43.6559 34.0181C43.1493 33.4786 42.8961 32.8092 42.8961 32.0099C42.8961 31.1809 43.1411 30.5016 43.6312 29.972C44.1214 29.4424 44.7168 29.1776 45.4174 29.1776C45.7398 29.1776 46.0424 29.2385 46.3253 29.3602C46.6082 29.4819 46.8697 29.6645 47.1099 29.9079V29.3158ZM45.6937 30.421C45.276 30.421 44.9289 30.5691 44.6526 30.8651C44.3763 31.1579 44.2382 31.5345 44.2382 31.9951C44.2382 32.4589 44.378 32.8405 44.6576 33.1398C44.9405 33.4391 45.2875 33.5888 45.6987 33.5888C46.123 33.5888 46.475 33.4424 46.7546 33.1497C47.0342 32.8536 47.174 32.4671 47.174 31.9901C47.174 31.523 47.0342 31.1447 46.7546 30.8553C46.475 30.5658 46.1214 30.421 45.6937 30.421ZM50.8145 29.3158H52.1664V29.9326C52.3967 29.6793 52.6516 29.4901 52.9313 29.3651C53.2141 29.2401 53.5217 29.1776 53.8539 29.1776C54.1895 29.1776 54.4921 29.2599 54.7618 29.4243C55.0316 29.5888 55.2487 29.8289 55.4132 30.1447C55.627 29.8289 55.8885 29.5888 56.1977 29.4243C56.5102 29.2599 56.8507 29.1776 57.2191 29.1776C57.6007 29.1776 57.9362 29.2664 58.2257 29.4441C58.5151 29.6217 58.7224 29.8536 58.8474 30.1398C58.9757 30.426 59.0398 30.8914 59.0398 31.5362V34.6842H57.6829V31.9605C57.6829 31.352 57.6072 30.9408 57.4559 30.727C57.3046 30.5099 57.0776 30.4013 56.775 30.4013C56.5447 30.4013 56.3375 30.4671 56.1533 30.5987C55.9724 30.7303 55.8375 30.9128 55.7487 31.1464C55.6599 31.3766 55.6155 31.7483 55.6155 32.2615V34.6842H54.2586V32.0839C54.2586 31.6036 54.2224 31.2566 54.15 31.0428C54.0809 30.8257 53.9757 30.6645 53.8342 30.5592C53.6928 30.4539 53.5217 30.4013 53.3211 30.4013C53.0974 30.4013 52.8934 30.4687 52.7092 30.6036C52.5283 30.7352 52.3918 30.921 52.2997 31.1612C52.2109 31.4013 52.1664 31.7796 52.1664 32.296V34.6842H50.8145V29.3158ZM63.6967 27.426H65.098L67.8908 34.6842H66.4549L65.8875 33.1891H62.927L62.3349 34.6842H60.899L63.6967 27.426ZM64.4072 29.3503L63.4401 31.8421H65.3694L64.4072 29.3503ZM68.8678 27.426H70.2395V34.6842H68.8678V27.426Z" fill="black"/>
</svg>
